<?xml version="1.0" standalone="no"?>
<!DOCTYPE svg PUBLIC "-//W3C//DTD SVG 20010904//EN"
 "http://www.w3.org/TR/2001/REC-SVG-20010904/DTD/svg10.dtd">
<svg version="1.0" xmlns="http://www.w3.org/2000/svg"
 width="512.000000pt" height="512.000000pt" viewBox="0 0 512.000000 512.000000"
 preserveAspectRatio="xMidYMid meet">

<g transform="translate(0.000000,512.000000) scale(0.100000,-0.100000)"
fill="#000000" stroke="none">
<path d="M0 2560 l0 -2560 2560 0 2560 0 0 2560 0 2560 -2560 0 -2560 0 0
-2560z m3174 1139 c314 -183 586 -343 604 -356 66 -49 63 -9 60 -798 l-3 -715
-30 -29 c-40 -40 -1188 -709 -1230 -717 -19 -3 -47 1 -71 11 -60 25 -1156 665
-1186 693 -14 13 -31 36 -37 51 -8 18 -11 239 -9 733 3 696 3 707 24 735 13
18 220 144 580 355 675 395 650 381 693 374 19 -3 280 -149 605 -337z"/>
<path d="M2100 3469 c-239 -138 -453 -263 -475 -278 -77 -51 -76 -35 -73 -589
l3 -491 490 300 c270 165 495 303 501 305 7 3 233 -130 504 -295 270 -166 496
-301 501 -301 5 0 9 197 9 485 0 414 -2 490 -15 523 -15 37 -39 52 -487 312
-259 151 -483 276 -497 278 -20 2 -133 -59 -461 -249z"/>
<path d="M2532 2388 c-15 -25 -110 -88 -411 -271 -215 -131 -391 -242 -391
-245 1 -4 177 -110 393 -236 333 -195 398 -229 432 -229 34 -1 97 33 432 229
216 126 393 232 393 235 0 4 -176 114 -392 245 -302 185 -396 246 -411 272
-10 17 -20 32 -22 32 -2 0 -12 -15 -23 -32z"/>
</g>
</svg>
